<?xml version="1.0" standalone="no"?>
<!DOCTYPE svg PUBLIC "-//W3C//DTD SVG 20010904//EN"
 "http://www.w3.org/TR/2001/REC-SVG-20010904/DTD/svg10.dtd">
<svg version="1.0" xmlns="http://www.w3.org/2000/svg"
 width="512.000000pt" height="512.000000pt" viewBox="0 0 512.000000 512.000000"
 preserveAspectRatio="xMidYMid meet">

<g transform="translate(0.000000,512.000000) scale(0.100000,-0.100000)"
fill="#000000" stroke="none">
<path d="M640 1629 c-114 -22 -229 -118 -271 -227 -16 -41 -22 -79 -22 -139
-1 -77 2 -88 39 -160 46 -91 110 -149 201 -183 82 -31 206 -25 284 13 70 34
142 106 177 177 24 49 27 66 27 155 0 87 -3 107 -27 157 -50 107 -153 185
-273 207 -66 12 -72 12 -135 0z"/>
<path d="M1750 1566 c-229 -62 -306 -353 -140 -525 52 -53 103 -78 187 -91 46
-7 507 -10 1418 -8 1532 3 1397 -4 1499 89 74 68 101 130 100 234 -1 130 -56
220 -172 277 l-67 33 -1390 2 c-1076 1 -1400 -1 -1435 -11z"/>
</g>
</svg>
