<?xml version="1.0" encoding="UTF-8"?>
<svg version="1.1" xmlns="http://www.w3.org/2000/svg" width="512" height="512">
<path d="M0 0 C1.11911966 -0.00538554 2.23823933 -0.01077108 3.39127171 -0.01631981 C7.11342996 -0.03054226 10.8352297 -0.0235096 14.55740356 -0.01637268 C17.23741772 -0.02207924 19.91740679 -0.02894479 22.59741211 -0.03717041 C29.10478253 -0.05430882 35.61205617 -0.05520875 42.11944328 -0.04995751 C47.41227149 -0.04590521 52.70507124 -0.0473719 57.9978981 -0.05270576 C59.13070589 -0.0538284 59.13070589 -0.0538284 60.28639869 -0.05497371 C61.82092531 -0.05650529 63.35545193 -0.05804364 64.88997854 -0.05958868 C79.25922587 -0.07329584 93.62841864 -0.06788865 107.9976647 -0.05640347 C121.12175253 -0.04647347 134.24569931 -0.05941086 147.36976539 -0.08333766 C160.8704492 -0.10776418 174.37106743 -0.11732778 187.87177289 -0.11068493 C195.44143153 -0.10720053 203.01098178 -0.10937308 210.58062363 -0.12693596 C217.02455495 -0.14170252 223.46830153 -0.14223559 229.9122294 -0.12486505 C233.1949819 -0.1163889 236.47733945 -0.1163147 239.76008606 -0.1295166 C271.97064864 -0.24912483 271.97064864 -0.24912483 283.2649231 10.87986755 C289.78901575 18.67962078 292.22409426 27.35262675 291.36257935 37.38768005 C289.52135006 47.32719745 284.8000717 55.08979611 276.68289185 61.09861755 C269.28792293 65.20693362 263.08699468 65.82224639 254.76202393 65.77536011 C253.61068242 65.78074565 252.45934091 65.78613118 251.27311027 65.79167992 C247.42408035 65.80596087 243.57539426 65.79885515 239.72634888 65.79173279 C236.9630952 65.79579369 234.19985897 65.8043001 231.43661499 65.81253052 C224.71527507 65.82970202 217.9940287 65.83056193 211.27267255 65.82531761 C205.80764563 65.82127141 200.3426463 65.82272482 194.8776207 65.82806587 C193.70959962 65.82918851 193.70959962 65.82918851 192.51798215 65.83033382 C190.93593773 65.83186534 189.35389331 65.83340369 187.7718489 65.83494879 C172.94488905 65.848668 158.117982 65.84324033 143.29102336 65.83176357 C129.73792909 65.82183297 116.18497138 65.83476987 102.63189818 65.85869776 C88.70304957 65.8831031 74.77426453 65.89269304 60.84539497 65.88604504 C53.0304256 65.88255585 45.21556122 65.88476495 37.40060806 65.90229607 C30.74754673 65.91703605 24.09466431 65.91763019 17.44160642 65.90022516 C14.04983024 65.89172703 10.65863504 65.89171354 7.26683426 65.90487671 C3.58328987 65.91807915 -0.09939049 65.90654394 -3.78289795 65.8888855 C-5.37689102 65.90329301 -5.37689102 65.90329301 -7.00308597 65.91799158 C-17.28056577 65.81685177 -25.17585005 62.74737688 -32.6569519 55.67674255 C-39.07060748 48.26372052 -41.02732901 40.18040605 -40.91085815 30.6181488 C-40.04972826 20.44451424 -35.319001 13.63116263 -28.0163269 6.8915863 C-20.09336705 0.48861874 -9.77905778 -0.0573273 0 0 Z " fill="#F44235" transform="translate(191.63742065429688,352.61231994628906)"/>
<path d="M0 0 C1.10727686 -0.00311998 2.21455371 -0.00623996 3.35538441 -0.00945449 C7.04923875 -0.01740346 10.7429274 -0.01112284 14.43678284 -0.00482178 C17.09180683 -0.00753303 19.74681957 -0.01102266 22.40184021 -0.01544189 C28.85499193 -0.02431626 35.30809703 -0.02242254 41.76125055 -0.01661661 C47.00837972 -0.01209202 52.25549586 -0.01149067 57.50262642 -0.01366425 C58.25064268 -0.01397071 58.99865893 -0.01427718 59.76934235 -0.01459293 C61.28913824 -0.01523241 62.80893412 -0.01588084 64.32872999 -0.01653811 C78.56672341 -0.02223578 92.80469103 -0.01569257 107.04268021 -0.00493738 C119.24616353 0.00399578 131.4496088 0.00244693 143.65309143 -0.0067749 C157.8400706 -0.01749066 172.02702717 -0.02168458 186.21400982 -0.01555037 C187.72838755 -0.01491331 189.24276528 -0.01428457 190.75714302 -0.01366425 C191.87466083 -0.01320142 191.87466083 -0.01320142 193.01475475 -0.01272924 C198.25200347 -0.01100608 203.48923781 -0.01390926 208.7264843 -0.01862335 C215.11414478 -0.02424678 221.50175613 -0.02268516 227.88941102 -0.01206186 C231.14534791 -0.00682448 234.40118664 -0.00580138 237.65712547 -0.01136017 C241.19369854 -0.01684058 244.73004298 -0.00995096 248.26660156 0 C249.28578106 -0.00446144 250.30496055 -0.00892289 251.35502428 -0.01351953 C263.23675156 0.05114204 272.55995665 2.14057817 281.73976135 10.00396729 C287.75611518 16.16142962 290.76998385 24.30253199 291.1342926 32.87896729 C290.59536548 42.51011646 286.84279813 51.37431815 279.81007385 58.04302979 C271.73218014 64.4863006 264.16314638 65.69834423 254.09623718 65.64164734 C252.94489568 65.64703288 251.79355417 65.65241841 250.60732353 65.65796715 C246.75829361 65.6722481 242.90960752 65.66514238 239.06056213 65.65802002 C236.29730846 65.66208092 233.53407222 65.67058733 230.77082825 65.67881775 C224.04948833 65.69598925 217.32824196 65.69684916 210.60688581 65.69160485 C205.14185889 65.68755864 199.67685956 65.68901205 194.21183395 65.6943531 C193.04381287 65.69547574 193.04381287 65.69547574 191.8521954 65.69662105 C190.27015098 65.69815257 188.68810657 65.69969092 187.10606216 65.70123602 C172.27910231 65.71495523 157.45219526 65.70952757 142.62523662 65.6980508 C129.07214235 65.68812021 115.51918464 65.7010571 101.96611144 65.724985 C88.03726283 65.74939033 74.10847778 65.75898027 60.17960823 65.75233227 C52.36463886 65.74884308 44.54977448 65.75105218 36.73482132 65.7685833 C30.08175999 65.78332328 23.42887756 65.78391742 16.77581967 65.76651239 C13.3840435 65.75801426 9.9928483 65.75800078 6.60104752 65.77116394 C2.91750312 65.78436639 -0.76517723 65.77283117 -4.44868469 65.75517273 C-6.04267776 65.76958024 -6.04267776 65.76958024 -7.66887271 65.78427881 C-17.94635251 65.683139 -25.84163679 62.61366411 -33.32273865 55.54302979 C-39.73351503 48.13333559 -41.70825338 40.03857952 -41.5688324 30.47662354 C-40.7253702 20.24344243 -35.87272055 12.9838159 -28.3032074 6.25396729 C-19.95015758 0.37176236 -9.87547084 -0.04313532 0 0 Z " fill="#F8A725" transform="translate(192.30320739746094,224.74603271484375)"/>
<path d="M0 0 C1.74099113 -0.01275828 1.74099113 -0.01275828 3.5171538 -0.0257743 C6.70750018 -0.04407982 9.89689382 -0.04027631 13.0872339 -0.02663505 C16.53998675 -0.01732466 19.99259943 -0.03690914 23.4453125 -0.0526123 C30.19704459 -0.07862078 36.94850968 -0.07763438 43.70027273 -0.06657412 C49.19097009 -0.05799505 54.68159055 -0.05886271 60.17228889 -0.06637001 C61.34716019 -0.06795234 61.34716019 -0.06795234 62.54576625 -0.06956664 C64.13722862 -0.0717377 65.72869097 -0.07392448 67.3201533 -0.07612679 C82.22352577 -0.09553034 97.12674883 -0.08358403 112.03010906 -0.06134085 C124.79927762 -0.04309339 137.56815696 -0.05399392 150.33729553 -0.08564758 C165.18796331 -0.12245943 180.03845055 -0.13941461 194.88916403 -0.12623531 C196.47488214 -0.12489429 198.06060027 -0.12358531 199.64631844 -0.12230873 C200.42639234 -0.12167807 201.20646625 -0.1210474 202.01017876 -0.12039762 C207.48951666 -0.11737799 212.96871766 -0.12859684 218.44802666 -0.14555931 C225.13251433 -0.16594212 231.81659417 -0.16492707 238.5010609 -0.13692691 C241.90734316 -0.12320944 245.31291485 -0.11884842 248.71916962 -0.14087677 C252.42193634 -0.15960431 256.12276823 -0.14109702 259.82543945 -0.11352539 C260.88801135 -0.12759184 261.95058326 -0.14165829 263.04535431 -0.156151 C271.83655057 -0.02486058 279.55594555 2.74274904 286.21927494 8.62014276 C292.92067879 15.61550348 296.34481284 24.53196857 296.18714905 34.14945984 C295.42778978 43.12114899 291.63343796 51.2254782 285.0894928 57.43070984 C277.00665621 63.87792331 269.4240102 65.08653504 259.35115051 65.04278564 C257.62012962 65.05298065 257.62012962 65.05298065 255.85413861 65.06338161 C252.668637 65.07903266 249.48345667 65.08134582 246.29792905 65.07779849 C242.8553719 65.07718413 239.41288942 65.09376492 235.97036743 65.10797119 C229.2323276 65.13284243 222.49436653 65.14113352 215.75628462 65.14280833 C210.27649437 65.14423614 204.79673 65.150412 199.31694794 65.1599102 C183.7644674 65.18631704 168.21204886 65.20017038 152.65954575 65.19791878 C151.82190191 65.19779891 150.98425807 65.19767904 150.12123108 65.19755554 C149.28255884 65.1974329 148.44388659 65.19731026 147.57980004 65.1971839 C133.9924363 65.19596492 120.40532214 65.22466638 106.81803057 65.26697064 C92.85074832 65.31011321 78.88358766 65.33077838 64.91623712 65.32818931 C57.08101623 65.32719515 49.24605699 65.3353592 41.4108963 65.36772346 C34.73917199 65.39510641 28.0678279 65.40150936 21.39607158 65.3811952 C17.99570037 65.37143231 14.59664967 65.37439633 11.19625282 65.39725494 C7.49992631 65.42048792 3.80549429 65.40643704 0.10920715 65.38336182 C-0.95152016 65.39879251 -2.01224747 65.4142232 -3.10511804 65.43012148 C-13.1216791 65.2925838 -21.45485583 61.58175025 -28.52378845 54.45414734 C-34.45584723 47.06379078 -36.79691922 39.0478054 -36.3948822 29.61820984 C-35.17193098 19.80885369 -30.83806617 11.80472506 -23.02378845 5.64164734 C-15.31932946 1.2414052 -8.78969248 -0.08643965 0 0 Z " fill="#8BC349" transform="translate(187.02378845214844,97.35835266113281)"/>
<path d="M0 0 C8.44579323 5.88682601 13.4077447 13.15922778 16.6328125 22.9140625 C18.52988748 33.69106294 17.2879877 44.15007534 11.45703125 53.46484375 C5.22198412 62.03981704 -2.56230353 67.70754887 -13 70 C-24.18816163 71.21783652 -33.84980879 69.99301488 -43.3046875 63.390625 C-52.09149335 56.16223378 -57.03114516 47.9019384 -58.8125 36.6875 C-59.68662026 26.01207382 -56.74360797 15.86857429 -50.0234375 7.5546875 C-37.14192252 -6.2371819 -16.43044756 -10.07103692 0 0 Z " fill="#F9A824" transform="translate(92,225)"/>
<path d="M0 0 C8.59348031 6.03647487 14.76591866 14.17599493 16.76171875 24.64453125 C17.64423422 36.81167073 16.34032141 47.18621163 8.375 56.87109375 C1.6343713 64.28088897 -6.20957994 69.26733326 -16.44140625 70.09375 C-29.33762728 70.64033343 -39.14469009 67.36749461 -48.80078125 58.51953125 C-56.01508562 50.98600987 -58.75116824 41.93479354 -59.23828125 31.64453125 C-58.65114856 19.82848586 -54.277865 10.71547994 -45.71484375 2.625 C-32.66035782 -7.81447061 -14.21144786 -8.60623457 0 0 Z " fill="#8BC34A" transform="translate(92.23828125,97.35546875)"/>
<path d="M0 0 C7.54707501 6.08635082 12.90396594 13.50452888 14.75 23.1875 C15.6742885 35.93055951 14.09030365 46.18099566 5.65625 56.1875 C-2.26282367 64.49603631 -11.26320583 68.3376484 -22.75 68.6875 C-34.16583183 68.33980969 -42.84420942 64.50411484 -50.93359375 56.52734375 C-58.29433502 48.46907588 -60.66057548 40.04975193 -61.25 29.1875 C-60.77043619 19.75607839 -56.99165893 9.92915893 -50.25 3.1875 C-35.26158222 -8.94986005 -16.27860897 -11.39197213 0 0 Z " fill="#F44235" transform="translate(94.25,354.8125)"/>
</svg>
